<?xml version="1.0" encoding="UTF-8"?>
<svg width="512" height="512" viewBox="0 0 512 512" fill="none" xmlns="http://www.w3.org/2000/svg">
  <circle cx="256" cy="256" r="240" fill="#C19B6C"/>
  <circle cx="256" cy="256" r="220" fill="#D4B88C"/>
  <circle cx="256" cy="256" r="200" fill="#C19B6C"/>
  <path d="M256 106C197.1 106 149 154.1 149 213C149 271.9 197.1 320 256 320C314.9 320 363 271.9 363 213C363 154.1 314.9 106 256 106ZM256 290C213.5 290 179 255.5 179 213C179 170.5 213.5 136 256 136C298.5 136 333 170.5 333 213C333 255.5 298.5 290 256 290Z" fill="#003087"/>
  <path d="M256 166C230.1 166 209 187.1 209 213C209 238.9 230.1 260 256 260C281.9 260 303 238.9 303 213C303 187.1 281.9 166 256 166ZM256 230C246.6 230 239 222.4 239 213C239 203.6 246.6 196 256 196C265.4 196 273 203.6 273 213C273 222.4 265.4 230 256 230Z" fill="#003087"/>
  <path d="M256 340L276 406H236L256 340Z" fill="#003087"/>
</svg> 